<?xml version="1.0" encoding="utf-8"?>
<!-- Generator: Adobe Illustrator 15.1.0, SVG Export Plug-In . SVG Version: 6.00 Build 0)  -->
<!DOCTYPE svg PUBLIC "-//W3C//DTD SVG 1.1//EN" "http://www.w3.org/Graphics/SVG/1.1/DTD/svg11.dtd">
<svg version="1.1" id="Layer_1" xmlns="http://www.w3.org/2000/svg" xmlns:xlink="http://www.w3.org/1999/xlink" x="0px" y="0px"
	 width="135px" height="40px" viewBox="0 0 135 40" enable-background="new 0 0 135 40" xml:space="preserve">
<g>
	<path fill="#FFFFFF" d="M134,35.268c0,2.116-1.682,3.732-3.803,3.732H4.729C2.61,39,1,37.384,1,35.268V4.725
		C1,2.609,2.61,1,4.729,1h125.468C132.318,1,134,2.609,134,4.725V35.268z"/>
	<path fill="#A6A6A6" d="M130.197,40H4.729C2.122,40,0,37.872,0,35.268V4.726C0,2.12,2.122,0,4.729,0h125.468
		C132.803,0,135,2.12,135,4.726v30.542C135,37.872,132.803,40,130.197,40L130.197,40z"/>
	<path d="M134,35.268c0,2.116-1.682,3.732-3.803,3.732H4.729C2.61,39,1,37.384,1,35.268V4.725C1,2.609,2.61,1,4.729,1h125.468
		C132.318,1,134,2.609,134,4.725V35.268z"/>
	<path fill="#FFFFFF" d="M30.128,19.784c-0.029-3.223,2.639-4.791,2.761-4.864c-1.511-2.203-3.853-2.504-4.676-2.528
		c-1.967-0.207-3.875,1.177-4.877,1.177c-1.022,0-2.565-1.157-4.228-1.123c-2.14,0.033-4.142,1.272-5.24,3.196
		c-2.266,3.923-0.576,9.688,1.595,12.859c1.086,1.554,2.355,3.287,4.016,3.226c1.625-0.066,2.232-1.035,4.193-1.035
		c1.943,0,2.513,1.035,4.207,0.996c1.744-0.027,2.842-1.56,3.89-3.127c1.255-1.779,1.759-3.533,1.779-3.623
		C33.507,24.924,30.161,23.646,30.128,19.784z"/>
	<path fill="#FFFFFF" d="M26.928,10.306c0.874-1.093,1.472-2.58,1.306-4.089c-1.265,0.056-2.847,0.875-3.758,1.944
		c-0.806,0.942-1.526,2.486-1.34,3.938C24.557,12.205,26.016,11.382,26.928,10.306z"/>
	
		<linearGradient id="SVGID_1_" gradientUnits="userSpaceOnUse" x1="98.998" y1="0.8911" x2="98.998" y2="36.9477" gradientTransform="matrix(1 0 0 -1 0 41)">
		<stop  offset="0" style="stop-color:#1A1A1A;stop-opacity:0.1"/>
		<stop  offset="0.1235" style="stop-color:#212121;stop-opacity:0.1506"/>
		<stop  offset="0.3085" style="stop-color:#353535;stop-opacity:0.2265"/>
		<stop  offset="0.5321" style="stop-color:#575757;stop-opacity:0.3181"/>
		<stop  offset="0.7834" style="stop-color:#858585;stop-opacity:0.4212"/>
		<stop  offset="1" style="stop-color:#B3B3B3;stop-opacity:0.51"/>
	</linearGradient>
	<path fill="url(#SVGID_1_)" d="M130.197,0H62.993l26.323,40h40.882c2.604,0,4.803-2.128,4.803-4.732V4.726
		C135,2.12,132.803,0,130.197,0z"/>
	<g>
		<path fill="#FFFFFF" d="M51.299,16.038h-1.61l-0.882-2.772h-3.066l-0.84,2.772h-1.568l3.038-9.436h1.876L51.299,16.038z
			 M48.541,12.104L47.743,9.64c-0.084-0.252-0.243-0.845-0.476-1.778h-0.028c-0.093,0.401-0.243,0.994-0.448,1.778l-0.784,2.464
			H48.541z"/>
		<path fill="#FFFFFF" d="M59.097,12.552c0,1.157-0.315,2.072-0.943,2.744c-0.563,0.598-1.263,0.896-2.098,0.896
			c-0.901,0-1.548-0.322-1.943-0.966v3.57h-1.512V11.47c0-0.727-0.019-1.472-0.056-2.237h1.33l0.084,1.078h0.028
			c0.504-0.812,1.27-1.218,2.296-1.218c0.803,0,1.472,0.317,2.009,0.952C58.828,10.68,59.097,11.516,59.097,12.552z M57.557,12.607
			c0-0.663-0.149-1.208-0.448-1.638c-0.327-0.448-0.765-0.672-1.316-0.672c-0.374,0-0.712,0.124-1.015,0.371
			c-0.303,0.248-0.502,0.572-0.595,0.973c-0.047,0.187-0.07,0.341-0.07,0.462v1.134c0,0.495,0.152,0.912,0.455,1.253
			c0.303,0.341,0.698,0.511,1.183,0.511c0.569,0,1.013-0.219,1.33-0.658C57.397,13.905,57.557,13.326,57.557,12.607z"/>
		<path fill="#FFFFFF" d="M66.923,12.552c0,1.157-0.315,2.072-0.943,2.744c-0.563,0.598-1.263,0.896-2.098,0.896
			c-0.901,0-1.548-0.322-1.943-0.966v3.57h-1.512V11.47c0-0.727-0.019-1.472-0.056-2.237h1.33l0.084,1.078h0.028
			c0.504-0.812,1.27-1.218,2.296-1.218c0.803,0,1.472,0.317,2.009,0.952C66.654,10.68,66.923,11.516,66.923,12.552z M65.383,12.607
			c0-0.663-0.149-1.208-0.448-1.638c-0.327-0.448-0.765-0.672-1.316-0.672c-0.374,0-0.712,0.124-1.015,0.371
			c-0.303,0.248-0.502,0.572-0.595,0.973c-0.047,0.187-0.07,0.341-0.07,0.462v1.134c0,0.495,0.152,0.912,0.455,1.253
			c0.303,0.341,0.698,0.511,1.183,0.511c0.569,0,1.013-0.219,1.33-0.658C65.224,13.905,65.383,13.326,65.383,12.607z"/>
		<path fill="#FFFFFF" d="M75.673,13.392c0,0.803-0.278,1.456-0.838,1.96c-0.614,0.551-1.472,0.826-2.569,0.826
			c-1.016,0-1.83-0.196-2.445-0.588l0.352-1.26c0.662,0.392,1.391,0.588,2.184,0.588c0.569,0,1.014-0.128,1.33-0.385
			c0.317-0.257,0.478-0.6,0.478-1.029c0-0.382-0.131-0.705-0.394-0.966c-0.261-0.261-0.694-0.504-1.302-0.728
			c-1.651-0.616-2.479-1.517-2.479-2.702c0-0.774,0.293-1.409,0.875-1.904c0.585-0.495,1.357-0.742,2.318-0.742
			c0.857,0,1.571,0.149,2.142,0.448l-0.38,1.232c-0.533-0.289-1.139-0.434-1.812-0.434c-0.534,0-0.95,0.131-1.251,0.392
			c-0.253,0.233-0.379,0.518-0.379,0.854c0,0.374,0.145,0.681,0.434,0.924c0.252,0.224,0.709,0.467,1.373,0.728
			c0.812,0.327,1.408,0.709,1.791,1.148C75.48,12.192,75.673,12.738,75.673,13.392z"/>
		<path fill="#FFFFFF" d="M80.686,10.368H79.02v3.304c0,0.84,0.293,1.26,0.881,1.26c0.271,0,0.494-0.023,0.673-0.07l0.042,1.148
			c-0.299,0.112-0.691,0.168-1.176,0.168c-0.599,0-1.064-0.182-1.4-0.546c-0.336-0.364-0.504-0.976-0.504-1.834v-3.43H76.54V9.233
			h0.994V7.988l1.483-0.448v1.694h1.666v1.134H80.686z"/>
		<path fill="#FFFFFF" d="M88.188,12.58c0,1.045-0.299,1.904-0.896,2.576c-0.626,0.69-1.456,1.036-2.492,1.036
			c-0.999,0-1.795-0.331-2.388-0.994c-0.594-0.663-0.889-1.498-0.889-2.506c0-1.054,0.306-1.918,0.916-2.59
			c0.611-0.672,1.437-1.008,2.472-1.008c0.999,0,1.802,0.331,2.407,0.994C87.898,10.731,88.188,11.562,88.188,12.58z M86.62,12.615
			c0-0.624-0.136-1.159-0.405-1.605c-0.316-0.54-0.771-0.81-1.357-0.81c-0.606,0-1.068,0.27-1.387,0.81
			c-0.271,0.447-0.406,0.991-0.406,1.633c0,0.624,0.136,1.159,0.406,1.605c0.326,0.54,0.784,0.81,1.372,0.81
			c0.578,0,1.031-0.274,1.357-0.824C86.48,13.778,86.62,13.238,86.62,12.615z"/>
		<path fill="#FFFFFF" d="M93.102,10.563c-0.148-0.028-0.308-0.042-0.476-0.042c-0.532,0-0.942,0.201-1.231,0.602
			c-0.252,0.355-0.379,0.803-0.379,1.344v3.57h-1.512v-4.662c0-0.784-0.014-1.498-0.042-2.142h1.315l0.057,1.302h0.042
			c0.158-0.448,0.41-0.807,0.756-1.078c0.336-0.243,0.7-0.364,1.093-0.364c0.139,0,0.267,0.009,0.377,0.028V10.563z"/>
		<path fill="#FFFFFF" d="M99.863,12.313c0,0.271-0.02,0.5-0.057,0.686h-4.535c0.019,0.672,0.237,1.186,0.658,1.54
			c0.383,0.317,0.877,0.476,1.482,0.476c0.673,0,1.283-0.107,1.834-0.322l0.238,1.05c-0.645,0.28-1.404,0.42-2.282,0.42
			c-1.056,0-1.884-0.31-2.484-0.931c-0.603-0.621-0.903-1.454-0.903-2.499c0-1.026,0.281-1.88,0.84-2.562
			c0.589-0.728,1.383-1.092,2.381-1.092c0.98,0,1.723,0.364,2.227,1.092C99.663,10.75,99.863,11.464,99.863,12.313z M98.422,11.921
			c0.01-0.448-0.089-0.835-0.294-1.162c-0.262-0.42-0.663-0.63-1.204-0.63c-0.494,0-0.896,0.206-1.203,0.616
			c-0.253,0.327-0.402,0.719-0.449,1.176H98.422z"/>
		<path fill="#FFFFFF" d="M107.346,10.402V6.716h1.066v9.021h-1.066v-4.312h-1.022c-0.11,1.958-1.001,3.157-2.233,3.157
			c-1.298,0-2.244-1.364-2.244-3.586c0-2.211,0.946-3.598,2.244-3.598c1.199,0,2.068,1.155,2.223,3.003L107.346,10.402
			L107.346,10.402z M104.1,8.367c-0.736,0-1.166,1.144-1.166,2.619c0,1.474,0.43,2.629,1.166,2.629c0.705,0,1.146-1.155,1.146-2.629
			C105.244,9.522,104.805,8.367,104.1,8.367z M109.348,16.178V6.497h1.067v9.681H109.348z"/>
		<path fill="#FFFFFF" d="M118.126,14.308c-0.858-0.374-2.08-1.716-2.597-2.904c-0.309,1.078-1.65,2.563-2.598,3.103l-0.88-0.693
			c2.035-1.122,2.894-2.872,2.894-5.248v-1.53h1.156v1.529c0,2.409,0.945,3.873,2.76,4.951L118.126,14.308z M119.952,16.178v-5.49
			h-2.168V9.72h2.168V6.497h1.1v9.681H119.952z"/>
		<path fill="#FFFFFF" d="M46.399,29.367l-2.409,0.021v-6.394h4.73v0.937h-3.63v4.51l1.749-0.01c0.979-0.022,2.52-0.188,2.806-0.242
			v0.912C49.359,29.146,47.907,29.355,46.399,29.367z M51.504,21.896v3.873h1.463v0.967h-1.463v4.842h-1.1v-9.682H51.504z"/>
		<path fill="#FFFFFF" d="M59.522,27.693v1.938H58.4v-1.938h-4.378V26.77h9.681v0.926h-4.181V27.693z M58.862,25.891
			c-2.42,0-3.686-0.848-3.686-2.024c0-1.166,1.266-2.023,3.686-2.023c2.454,0,3.697,0.857,3.697,2.013
			C62.559,25.031,61.316,25.891,58.862,25.891z M55.276,31.357v-2.75h1.1v1.826h6.37v0.924H55.276z M58.862,25.021
			c1.529,0,2.52-0.508,2.52-1.156c0-0.66-0.968-1.166-2.52-1.166c-1.562,0-2.508,0.473-2.508,1.145
			C56.354,24.492,57.322,25.021,58.862,25.021z"/>
		<path fill="#FFFFFF" d="M64.758,30.455v-0.924h4.258v-1.508H66.1v-3.156h5.798v-1.332h-5.82v-0.924h6.908v3.18H67.2V27.1h6.062
			v0.926H70.17v1.507h4.27v0.924L64.758,30.455L64.758,30.455z"/>
		<path fill="#FFFFFF" d="M75.493,30.203v-0.926h9.682v0.926H75.493z M76.803,27.463v-4.564h7.141v0.925h-6.041v2.717h6.097v0.924
			L76.803,27.463L76.803,27.463z"/>
		<path fill="#FFFFFF" d="M90.477,25.098v-0.945h6.039v0.945H90.477z M93.523,30.258c-1.584,0-2.686-1.078-2.686-2.256
			c0-1.188,1.089-2.223,2.695-2.223c1.552,0,2.641,1.022,2.641,2.223C96.175,29.146,95.086,30.258,93.523,30.258z M91.906,23.293
			v-0.924h3.189v0.924H91.906z M93.534,26.704c-0.979,0-1.54,0.616-1.54,1.31c0,0.682,0.562,1.299,1.54,1.299
			c0.946,0,1.519-0.617,1.519-1.299C95.053,27.309,94.48,26.704,93.534,26.704z M98.684,21.896v3.928h1.463v1.001h-1.463v4.753
			h-1.101v-9.682H98.684z"/>
		<path fill="#FFFFFF" d="M102.157,29.895l-0.825-0.647c2.895-1.299,3.938-3.862,4.061-5.336h-3.478v-0.925h4.742
			C106.646,25.273,105.216,28.486,102.157,29.895z M108.779,31.578v-9.682h1.102v9.682H108.779z"/>
	</g>
</g>
</svg>
